# xmcd
#
# Track frame offsets: 
#        150
#        18510
#        37292
#        54127
#        72282
#        89245
#        104755
#        121575
#        140080
#        156785
#        175415
#        191340
#        207855
#        228795
#        254535
#        274772
#        301080
#        318927
#
# Disc length: 4678 seconds
#
# Revision: 4
# Processed by: cddbd v1.5.2PL0 Copyright (c) Steve Scherf et al.
# Submitted via: ExactAudioCopy v0.99pb4
#
DISCID=00124412
DTITLE=Various Artist - Eighties Soul Weekender III - Disc 2
DYEAR=1997
DGENRE=Soul
TTITLE0=Yarborough and Peoples - Don't Stop The Music
TTITLE1=Al Hudson and The Partners - You Can Do It
TTITLE2=Stephanie Mills - The Medicine Song
TTITLE3=Rocker's Revenge - Walkin' On Sunshine
TTITLE4=Luther Vandross - Never Too Much
TTITLE5=Colonel Abrams - Trapped
TTITLE6=Whispers (The) - It's A Love Thing
TTITLE7=Quincy Jones - Ai No Corrida
TTITLE8=Gibson Brothers - Cuba
TTITLE9=Atmosfear - Dancing In Outer Space
TTITLE10=O'Jays (The) - I Love Music
TTITLE11=Anita Ward - Ring My Bell
TTITLE12=Players Association (The) - Turn The Music Up!
TTITLE13=S.O.S. Band - Just Be Good To Me
TTITLE14=Maze - Twilight
TTITLE15=Roy Ayer - Love Will Bring Us Back Together
TTITLE16=Slave - Son Of Slide
TTITLE17=Sugarhill Gang (The) - Rapper's Delight
EXTD=
EXTT0=
EXTT1=
EXTT2=
EXTT3=
EXTT4=
EXTT5=
EXTT6=
EXTT7=
EXTT8=
EXTT9=
EXTT10=
EXTT11=
EXTT12=
EXTT13=
EXTT14=
EXTT15=
EXTT16=
EXTT17=
PLAYORDER=
